<?xml version="1.0" encoding="UTF-8"?>
<svg version="1.1" xmlns="http://www.w3.org/2000/svg" width="1212" height="281">
<path d="M0 0 C1.37387202 -0.01641117 2.74766408 -0.04350079 4.12109375 -0.08203125 C17.16784872 -0.44466009 28.24112962 2.60908479 39.5222168 9.28759766 C40.09818604 9.62823242 40.67415527 9.96886719 41.26757812 10.31982422 C47.37913903 13.99002852 52.99748853 17.48280814 57.1472168 23.35009766 C60.74596629 22.02964395 64.02254066 20.35689809 67.36230469 18.48120117 C74.10852444 14.70666405 80.49236723 11.81798482 88.1472168 10.35009766 C89.07405273 10.16833984 90.00088867 9.98658203 90.95581055 9.79931641 C110.91749555 6.9895321 130.01575787 11.74456222 146.1472168 23.85009766 C154.25675347 30.66210846 162.41086134 38.2409864 166.1472168 48.35009766 C166.70070801 48.39497314 167.25419922 48.43984863 167.82446289 48.48608398 C188.10637597 50.18081616 188.10637597 50.18081616 196.1472168 53.35009766 C197.07147461 53.67623047 197.99573242 54.00236328 198.94799805 54.33837891 C204.92453404 56.59411428 210.15226343 59.436327 215.3972168 63.03759766 C215.97060791 63.43027832 216.54399902 63.82295898 217.13476562 64.22753906 C218.51461284 65.21154062 219.83732932 66.27472229 221.1472168 67.35009766 C221.1472168 68.01009766 221.1472168 68.67009766 221.1472168 69.35009766 C221.71698242 69.57697266 222.28674805 69.80384766 222.8737793 70.03759766 C233.52068271 76.18426355 240.96119322 91.89675135 244.1472168 103.35009766 C245.27872441 110.13811467 245.33332092 116.82582559 245.33251953 123.68334961 C245.33470766 125.77885208 245.3529132 127.87382846 245.37182617 129.96923828 C245.41790026 140.72129926 243.73058057 148.66838541 239.1472168 158.35009766 C238.89584961 158.97400391 238.64448242 159.59791016 238.38549805 160.24072266 C236.24138107 165.21925768 233.03845822 169.16309059 229.5847168 173.28759766 C229.10123779 173.86799805 228.61775879 174.44839844 228.11962891 175.04638672 C225.84808737 177.68703904 224.50996925 179.22918017 221.1472168 180.35009766 C221.1472168 181.01009766 221.1472168 181.67009766 221.1472168 182.35009766 C206.25051502 195.60487839 187.65183865 200.70981404 168.1472168 200.35009766 C168.0647168 201.01009766 167.9822168 201.67009766 167.8972168 202.35009766 C164.64575566 215.35594219 153.43217849 227.68481236 142.2722168 234.60009766 C124.51970736 244.48999875 105.44061648 249.01660444 85.3894043 243.50634766 C72.89754735 239.05142036 63.36767361 232.84996226 54.1472168 223.35009766 C50.91593628 224.77186108 48.78811914 226.51793233 46.2722168 228.97509766 C28.12717885 245.39203675 4.72562773 250.66829263 -19.08618164 249.55273438 C-41.46500179 247.91362206 -62.42957105 235.3130288 -77.15356445 218.76416016 C-80.65941658 214.49560894 -83.59929037 210.42045652 -85.8527832 205.35009766 C-86.5127832 204.25697266 -87.1727832 203.16384766 -87.8527832 202.03759766 C-90.18697615 198.02207033 -91.50650674 193.77480245 -92.8527832 189.35009766 C-93.1827832 188.36009766 -93.5127832 187.37009766 -93.8527832 186.35009766 C-94.71774414 186.23408203 -95.58270508 186.11806641 -96.47387695 185.99853516 C-99.88582114 185.34375743 -102.72412087 184.33391517 -105.9152832 182.97509766 C-107.41768555 182.34474609 -107.41768555 182.34474609 -108.95043945 181.70166016 C-111.73315309 180.40580697 -114.32087006 179.08759402 -116.8527832 177.35009766 C-116.8527832 176.69009766 -116.8527832 176.03009766 -116.8527832 175.35009766 C-117.4096582 175.28822266 -117.9665332 175.22634766 -118.5402832 175.16259766 C-126.52851871 172.35592032 -134.84507222 159.79216015 -138.7277832 152.41259766 C-146.44387514 135.50286425 -148.99818961 116.15058519 -142.8527832 98.35009766 C-142.43512695 97.08166016 -142.43512695 97.08166016 -142.0090332 95.78759766 C-138.82622056 87.00742484 -133.9099824 78.54666281 -126.8527832 72.35009766 C-126.18762695 71.74037109 -125.5224707 71.13064453 -124.8371582 70.50244141 C-119.14192336 65.35009766 -119.14192336 65.35009766 -116.8527832 65.35009766 C-116.8527832 64.69009766 -116.8527832 64.03009766 -116.8527832 63.35009766 C-101.8424547 54.05674644 -87.33857162 51.56225237 -69.8527832 52.35009766 C-69.74321289 51.74681641 -69.63364258 51.14353516 -69.52075195 50.52197266 C-68.62980814 46.03103634 -67.89330919 42.8771078 -64.8527832 39.35009766 C-64.4093457 38.43228516 -63.9659082 37.51447266 -63.5090332 36.56884766 C-54.80015423 19.64404511 -37.86051157 8.09081172 -20.25512695 2.04150391 C-13.52686347 0.10507686 -6.9691767 0.06060866 0 0 Z " fill="#01A1E0" transform="translate(157.852783203125,17.64990234375)"/>
<path d="M0 0 C3.3 0 6.6 0 10 0 C17.94376047 18.3836309 25.78950867 36.80368473 33.4375 55.3125 C39.24746388 69.37299158 45.09459102 83.41679576 51 97.4375 C51.5244722 98.6837767 51.5244722 98.6837767 52.05953979 99.95523071 C53.03882464 102.28171895 54.01915693 104.60776209 55 106.93359375 C55.29080948 107.62421906 55.58161896 108.31484436 55.88124084 109.02639771 C57.36626084 112.54701836 57.36626084 112.54701836 59 116 C67.97533862 94.59897627 76.93434771 73.19155116 85.8125 51.75 C95.73980889 27.78403771 95.73980889 27.78403771 100.63973999 16.05969238 C101.20833681 14.69831962 101.77608085 13.33659034 102.34292603 11.9744873 C103.11165355 10.12783213 103.88384745 8.28262104 104.65625 6.4375 C105.08744141 5.40496094 105.51863281 4.37242188 105.96289062 3.30859375 C107 1 107 1 108 0 C111.3 0 114.6 0 118 0 C118 42.9 118 85.8 118 130 C114.7 130 111.4 130 108 130 C108 95.35 108 60.7 108 25 C95.56123323 54.71483174 83.16100381 84.44041807 71.0390625 114.28515625 C70.61181885 115.33533936 70.1845752 116.38552246 69.74438477 117.4675293 C68.98464761 119.33650468 68.22713604 121.20638715 67.47241211 123.07739258 C65.11096891 128.88903109 65.11096891 128.88903109 64 130 C60.66672158 130.1424478 57.33546107 130.04222103 54 130 C50.69356365 123.57085945 47.68002473 117.09661686 44.953125 110.40234375 C44.58423157 109.50581085 44.21533813 108.60927795 43.83526611 107.68557739 C42.63677717 104.77093511 41.44342881 101.85421736 40.25 98.9375 C39.41384398 96.90208463 38.57724933 94.86684941 37.74023438 92.83178711 C36.4509879 89.69695587 35.16204666 86.56200254 33.87451172 83.4264679 C29.80707749 73.52113168 25.71251086 63.62714473 21.60925293 53.73660278 C20.5204111 51.11170554 19.43248935 48.48642853 18.34472656 45.86108398 C17.67777842 44.25242315 17.01078856 42.6437796 16.34375 41.03515625 C16.0476886 40.32046173 15.7516272 39.60576721 15.44659424 38.86941528 C15.16708923 38.19587006 14.88758423 37.52232483 14.59960938 36.82836914 C14.2425592 35.9672628 14.2425592 35.9672628 13.8782959 35.08876038 C12.60154296 32.0523908 11.29752247 29.02755243 10 26 C10 60.32 10 94.64 10 130 C6.7 130 3.4 130 0 130 C0 87.1 0 44.2 0 0 Z " fill="#FFFFFF" transform="translate(485,71)"/>
<path d="M0 0 C0.804375 0.42410156 1.60875 0.84820312 2.4375 1.28515625 C10.67443638 6.14874204 15.51951022 13.85550781 18 23 C18.45411437 25.34180547 18.75245211 27.62354022 19 30 C15.7 30 12.4 30 9 30 C8.62875 28.700625 8.2575 27.40125 7.875 26.0625 C5.01272064 17.64792872 1.17228784 11.92915596 -6.8515625 7.875 C-15.78009207 4.23865341 -28.84374761 4.64546043 -37.859375 7.97265625 C-44.70550173 11.25829736 -49.03615414 15.20468255 -52.15234375 22.21875 C-54.10824384 28.63626552 -54.13187062 35.26071394 -51.375 41.4375 C-46.17977845 50.18067774 -37.03562917 53.32447656 -27.63671875 55.74609375 C-24.16597742 56.6034319 -20.6900939 57.43688032 -17.21289062 58.26757812 C-4.3797147 61.44137432 9.17444321 65.42831696 16.9375 76.9375 C21.90733485 85.90034009 22.43340166 96.4099936 19.875 106.25 C16.43511286 116.23367243 9.04513319 122.67807192 -0.25 127.25 C-14.43762943 133.10056884 -30.62275517 132.14288639 -44.83203125 126.96875 C-54.31837181 122.6554523 -60.1297771 116.20241626 -64.1015625 106.6328125 C-65.21696538 103.36419709 -65.77068511 100.43972333 -66 97 C-62.37 97 -58.74 97 -55 97 C-54.62875 98.505625 -54.2575 100.01125 -53.875 101.5625 C-51.92621177 107.92075836 -49.25929303 112.01764958 -43.52734375 115.50390625 C-32.99895863 120.94641461 -21.15780245 121.69992712 -9.55078125 119.28125 C-2.71440073 116.91664419 3.56767554 113.77852438 7.375 107.4375 C10.56877867 100.68142973 11.32631852 93.52242267 9.19921875 86.26953125 C6.28776994 79.65624031 2.37940859 76.31599185 -4 73 C-8.14237027 71.51023957 -12.34641295 70.46013189 -16.625 69.4375 C-18.93954331 68.84664605 -21.25335264 68.25290917 -23.56640625 67.65625 C-25.22760498 67.23279297 -25.22760498 67.23279297 -26.92236328 66.80078125 C-40.45547056 63.27955391 -52.77912278 59.05283083 -61 47 C-65.26013148 39.1619645 -65.13347083 29.52477918 -63.37890625 20.97265625 C-60.08622277 10.53850816 -53.40730233 4.21379988 -43.90625 -0.80859375 C-31.01817406 -6.09201198 -12.35515451 -6.88542465 0 0 Z " fill="#FFFFFF" transform="translate(690,73)"/>
<path d="M0 0 C67.43488943 0 67.43488943 0 79.6796875 11.58984375 C88.42830134 20.83900017 89.400303 32.637154 89.2109375 44.765625 C88.82785145 55.50149326 84.13348473 65.36048348 76.375 72.8125 C66.74795053 80.64373447 55.74708648 82.16420033 43.7890625 82.09765625 C42.93014404 82.09664917 42.07122559 82.09564209 41.1862793 82.09460449 C37.99917248 82.08940002 34.8120848 82.07543887 31.625 82.0625 C24.48875 82.041875 17.3525 82.02125 10 82 C10 97.84 10 113.68 10 130 C6.7 130 3.4 130 0 130 C0 87.1 0 44.2 0 0 Z M10 9 C10 30.12 10 51.24 10 73 C19.8071875 73.0928125 19.8071875 73.0928125 29.8125 73.1875 C32.87301636 73.22846802 32.87301636 73.22846802 35.99536133 73.27026367 C48.71669461 73.37055945 61.13121274 73.17758815 71 64 C78.32771599 54.47082427 80.03462969 44.83357712 79 33 C77.44646175 25.9825971 74.66291719 19.60711907 69 15 C63.02260955 11.36816783 57.45981597 8.86668591 50.41503906 8.88647461 C49.04532959 8.88665588 49.04532959 8.88665588 47.64794922 8.88684082 C46.22119873 8.89451477 46.22119873 8.89451477 44.765625 8.90234375 C43.88503418 8.90335083 43.00444336 8.90435791 42.09716797 8.90539551 C38.81476536 8.91061867 35.53238134 8.92457994 32.25 8.9375 C24.9075 8.958125 17.565 8.97875 10 9 Z " fill="#FFFFFF" transform="translate(779,71)"/>
<path d="M0 0 C6.32960017 4.73040183 9.71692794 12.0779168 10.96484375 19.75 C11.05014074 21.92679945 11.08259917 24.10595796 11.07836914 26.28442383 C11.07825584 28.23588066 11.07825584 28.23588066 11.07814026 30.22676086 C11.07303437 31.63685139 11.06781839 33.04694151 11.0625 34.45703125 C11.06063354 35.90720063 11.05921071 37.35737065 11.05821228 38.80754089 C11.05440505 42.61332966 11.04459017 46.41907991 11.0335083 50.22485352 C11.02325552 54.11278767 11.01870639 58.00072808 11.01367188 61.88867188 C11.00296621 69.50913209 10.98591145 77.12956064 10.96484375 84.75 C8.32484375 84.75 5.68484375 84.75 2.96484375 84.75 C2.30484375 80.79 1.64484375 76.83 0.96484375 72.75 C-0.27265625 74.131875 -1.51015625 75.51375 -2.78515625 76.9375 C-9.38144693 83.54419493 -17.6701511 87.21990537 -27.03515625 87.75 C-27.69515625 87.80027344 -28.35515625 87.85054688 -29.03515625 87.90234375 C-37.95844828 88.300705 -47.42682899 86.50647532 -54.34375 80.5859375 C-60.73648298 73.64694328 -61.81329719 66.48906849 -61.44140625 57.23828125 C-60.50675581 49.21286926 -56.79085953 44.60439007 -50.625 39.5078125 C-36.3706719 29.83292917 -14.56550067 31.40569216 1.96484375 30.75 C1.56531292 28.3709755 1.1459547 25.99833244 0.71484375 23.625 C0.60527344 22.95984375 0.49570313 22.2946875 0.3828125 21.609375 C-0.72596879 15.65697019 -2.9963789 11.45688336 -7.72265625 7.5 C-15.8511911 3.2056797 -24.06788866 3.07813655 -33.03515625 4.75 C-38.16471819 6.4690221 -41.92835701 8.50485086 -45.53515625 12.5625 C-47.29212952 16.2960682 -48.19988852 19.71287265 -49.03515625 23.75 C-52.00515625 23.75 -54.97515625 23.75 -58.03515625 23.75 C-58.77507466 15.75888117 -56.45344958 9.89458198 -51.34375 3.69921875 C-38.6291579 -8.69684495 -14.65069646 -8.99850838 0 0 Z M-16.78515625 39.5625 C-17.80609375 39.63275391 -18.82703125 39.70300781 -19.87890625 39.77539062 C-30.79250419 40.6409996 -41.2608421 42.21752063 -48.84765625 50.75 C-52.3322991 55.52893877 -52.64865127 59.87635322 -52.03515625 65.75 C-50.21523609 70.90644045 -47.47310157 73.61733271 -43.03515625 76.75 C-35.01130524 79.97759689 -25.73483435 80.11569333 -17.59765625 77.125 C-8.1406882 72.63642269 -3.86725175 66.44654836 -0.03515625 56.75 C1.77123335 50.73446334 2.19637 45.00120867 1.96484375 38.75 C-4.3181602 38.63463411 -10.52338847 39.06794496 -16.78515625 39.5625 Z " fill="#FFFFFF" transform="translate(1153.03515625,116.25)"/>
<path d="M0 0 C10.93533152 8.00458941 18.02305547 18.36673661 20.23828125 31.87109375 C21.9500908 47.6102316 18.17211271 60.00297467 9.76953125 73.20703125 C1.8752954 81.1012671 -8.25332011 86.64051135 -19.48046875 87.45703125 C-20.14304687 87.50859375 -20.805625 87.56015625 -21.48828125 87.61328125 C-33.16730415 88.11560482 -44.17622477 84.21611487 -53.10546875 76.83203125 C-62.7193236 67.84696553 -67.44139331 55.83731546 -67.95336914 42.78540039 C-68.10716176 29.57170489 -64.97092032 17.85945474 -56.48046875 7.45703125 C-41.81382524 -6.96678704 -17.99784178 -11.19550788 0 0 Z M-48.3203125 12.83984375 C-55.91651727 22.04320215 -59.13486741 32.61136996 -58.1472168 44.42138672 C-57.04108415 54.54503311 -53.8843614 63.21766955 -46.48046875 70.45703125 C-37.5690146 76.77247406 -29.40471925 79.4050034 -18.48046875 78.45703125 C-8.96018865 76.78606763 -1.86556743 71.87776506 4.203125 64.453125 C10.98476091 54.16999162 12.034057 41.76867558 9.87109375 29.8984375 C6.97353239 19.38549052 1.9184794 12.46972222 -7.26953125 6.6484375 C-21.15246401 -0.83264818 -37.21549678 1.82531108 -48.3203125 12.83984375 Z " fill="#FFFFFF" transform="translate(944.48046875,116.54296875)"/>
<path d="M0 0 C2.97 0 5.94 0 9 0 C9 9.24 9 18.48 9 28 C14.94 28 20.88 28 27 28 C27 30.64 27 33.28 27 36 C21.06 36 15.12 36 9 36 C9 62.4 9 88.8 9 116 C6.03 116 3.06 116 0 116 C0 89.6 0 63.2 0 36 C-5.94 36 -11.88 36 -18 36 C-18 33.36 -18 30.72 -18 28 C-12.06 28 -6.12 28 0 28 C0 18.76 0 9.52 0 0 Z " fill="#FFFFFF" transform="translate(1055,85)"/>
<path d="M0 0 C3.3 0 6.6 0 10 0 C10 42.9 10 85.8 10 130 C6.7 130 3.4 130 0 130 C0 87.1 0 44.2 0 0 Z " fill="#FFFFFF" transform="translate(444,71)"/>
<path d="M0 0 C2.97 0 5.94 0 9 0 C9.88992166 16.08190793 10.13466469 32.10667813 10.09765625 48.2109375 C10.09578524 50.64572114 10.09436458 53.08050516 10.09336853 55.51528931 C10.08959703 61.84435106 10.07981432 68.17338893 10.06866455 74.50244141 C10.0583333 80.99250974 10.05384612 87.48258202 10.04882812 93.97265625 C10.0381858 106.64844785 10.02117608 119.32422192 10 132 C6.7 132 3.4 132 0 132 C0 88.44 0 44.88 0 0 Z " fill="#FFFFFF" transform="translate(1191,69)"/>
<path d="M0 0 C0.74958984 0.00451172 1.49917969 0.00902344 2.27148438 0.01367188 C4.11852383 0.02543646 5.96552213 0.04337135 7.8125 0.0625 C7.8125 3.0325 7.8125 6.0025 7.8125 9.0625 C6.56146484 9.10117188 6.56146484 9.10117188 5.28515625 9.140625 C-3.48173688 9.58248445 -10.13047087 10.72672049 -17 16.375 C-22.07236637 22.6067644 -24.27485251 28.00247055 -24.39282227 36.02441406 C-24.41276749 37.22535706 -24.43271271 38.42630005 -24.45326233 39.66363525 C-24.47833107 41.60130768 -24.47833107 41.60130768 -24.50390625 43.578125 C-24.52448963 44.91762921 -24.54548646 46.25712713 -24.56687927 47.59661865 C-24.62195709 51.11465341 -24.67142906 54.6327454 -24.71972656 58.15087891 C-24.77004625 61.74386664 -24.82567756 65.33677173 -24.88085938 68.9296875 C-24.988266 75.97388655 -25.08974949 83.0181598 -25.1875 90.0625 C-28.4875 90.0625 -31.7875 90.0625 -35.1875 90.0625 C-35.1875 61.0225 -35.1875 31.9825 -35.1875 2.0625 C-32.2175 2.0625 -29.2475 2.0625 -26.1875 2.0625 C-25.5275 5.0325 -24.8675 8.0025 -24.1875 11.0625 C-23.5275 10.155 -22.8675 9.2475 -22.1875 8.3125 C-16.49032845 1.42706124 -8.52292594 -0.09676684 0 0 Z " fill="#FFFFFF" transform="translate(1019.1875,110.9375)"/>
<path d="M0 0 C3.18637361 0.64073817 4.95955678 2.09960721 7.15625 4.43359375 C8.89794538 7.9169845 8.7338762 11.63307591 8.15625 15.43359375 C5.78463879 18.78175075 4.14091279 20.09110234 0.28125 21.43359375 C-3.81130025 21.43359375 -6.29146072 20.44432353 -9.84375 18.43359375 C-12.71809293 15.28978117 -12.84375 13.73117936 -12.84375 9.43359375 C-12.29141217 6.39573571 -11.62896863 5.11142169 -9.84375 2.43359375 C-6.2938633 0.06700262 -4.18574986 -0.23021624 0 0 Z " fill="#FFFFFF" transform="translate(741.84375,182.56640625)"/>
<path d="M0 0 C2.31 0 4.62 0 7 0 C7.33 0.99 7.66 1.98 8 3 C5.36 2.67 2.72 2.34 0 2 C0 1.34 0 0.68 0 0 Z " fill="#48BBE8" transform="translate(247,260)"/>
</svg>
